<?xml version="1.0" encoding="UTF-8" standalone="yes"?>
<svg xmlns="http://www.w3.org/2000/svg" xmlns:xlink="http://www.w3.org/1999/xlink" width="705.520pt" height="352.779pt" version="1.1" viewBox="8695.033 2035.065 705.520 352.779">
  <!--
	Exported with Concepts: Smarter Sketching
	Version: 1059 on iOS 15.4
	https://concepts.app/
	-->
  <title>Untitled</title>
  <desc>Drawing exported from Concepts: Smarter Sketching</desc>
  <defs></defs>
  <g id="Foreground" opacity="1.000">
    <circle id="STROKE_d5ccf919-72f5-4c44-b846-665086bc7106" opacity="1.000" fill="#f3ba38" stroke="#f3ba38" stroke-width="0.1" stroke-opacity="1.000" fill-opacity="1.000" cx="8800.000" cy="2168.000" r="1.190"></circle>
    <path id="STROKE_0f1d810e-ef8b-4cce-9b9e-102d4537fc29" opacity="1.000" fill="none" stroke="#f3ba38" stroke-width="2.111" stroke-opacity="1.000" stroke-linecap="round" stroke-linejoin="round" d="M 8800.000 2168.000 Q 8800.000 2174.068 8800.000 2178.000 Q 8800.000 2185.349 8800.000 2188.000 Q 8800.000 2194.309 8800.000 2198.000 Q 8800.000 2203.787 8800.000 2208.000 Q 8800.000 2213.615 8800.000 2218.000 Q 8800.000 2223.099 8800.000 2228.000 Q 8800.000 2234.443 8800.000 2238.000 Q 8800.000 2244.193 8800.000 2248.000 Q 8800.000 2254.677 8800.000 2258.000 Q 8800.000 2264.529 8800.000 2268.000 Q 8800.000 2273.318 8800.000 2278.000 Q 8800.000 2284.802 8800.000 2288.000 Q 8800.000 2294.162 8800.000 2298.000 Q 8800.000 2303.787 8800.000 2308.000 Q 8800.000 2314.521 8800.000 2318.000 Q 8800.000 2323.287 8800.000 2328.000 Q 8800.000 2333.099 8800.000 2338.000 Q 8800.000 2343.458 8800.000 2348.000 Q 8800.000 2353.412 8800.000 2358.000 Q 8800.000 2363.427 8800.000 2368.000 Q 8800.000 2364.549 8800.000 2364.896 Q 8800.000 2363.383 8800.000 2363.833 Q 8800.000 2363.151 8800.000 2358.000 "></path>
    <path id="STROKE_3ef886ef-4a3c-4ef5-9d84-59715186bc51" opacity="1.000" fill="none" stroke="#f3ba38" stroke-width="2.380" stroke-opacity="1.000" stroke-linecap="round" stroke-linejoin="round" d="M 8800.000 2364.693 Q 8800.000 2364.818 8800.000 2368.000 Q 8800.000 2373.380 8800.000 2378.000 "></path>
    <path id="STROKE_dad1734f-c850-45fc-b1b1-775f7754e936" opacity="1.000" fill="none" stroke="#f3ba38" stroke-width="1.898" stroke-opacity="1.000" stroke-linecap="round" stroke-linejoin="round" d="M 8790.000 2368.000 Q 8791.500 2368.000 8800.000 2368.000 Q 8806.354 2368.000 8810.000 2368.000 Q 8815.213 2368.000 8820.000 2368.000 Q 8825.947 2368.000 8830.000 2368.000 Q 8835.223 2368.000 8840.000 2368.000 Q 8845.415 2368.000 8850.000 2368.000 Q 8855.211 2368.000 8860.000 2368.000 Q 8866.279 2368.000 8870.000 2368.000 Q 8876.534 2368.000 8880.000 2368.000 Q 8886.664 2368.000 8890.000 2368.000 Q 8895.794 2368.000 8900.000 2368.000 Q 8906.007 2368.000 8910.000 2368.000 Q 8917.816 2368.000 8930.000 2368.000 Q 8936.521 2368.000 8940.000 2368.000 Q 8945.672 2368.000 8950.000 2368.000 Q 8955.927 2368.000 8960.000 2368.000 Q 8966.724 2368.000 8970.000 2368.000 Q 8976.187 2368.000 8980.000 2368.000 Q 8986.983 2368.000 8990.000 2368.000 Q 8996.780 2368.000 9000.000 2368.000 Q 9006.910 2368.000 9010.000 2368.000 Q 9016.978 2368.000 9020.000 2368.000 Q 9026.503 2368.000 9030.000 2368.000 Q 9035.049 2368.000 9040.000 2368.000 Q 9045.241 2368.000 9050.000 2368.000 Q 9056.768 2368.000 9060.000 2368.000 Q 9065.980 2368.000 9070.000 2368.000 Q 9076.298 2368.000 9080.000 2368.000 Q 9086.032 2368.000 9090.000 2368.000 Q 9095.516 2368.000 9100.000 2368.000 Q 9105.646 2368.000 9110.000 2368.000 Q 9115.172 2368.000 9120.000 2368.000 Q 9125.427 2368.000 9130.000 2368.000 Q 9135.035 2368.000 9140.000 2368.000 Q 9139.871 2368.000 9139.600 2368.000 L 9140.000 2368.000 "></path>
    <path id="STROKE_e74c949b-1881-4ca7-ad5a-1532924ceec3" opacity="1.000" fill="none" stroke="#f3ba38" stroke-width="2.380" stroke-opacity="1.000" stroke-linecap="round" stroke-linejoin="round" d="M 8804.354 2268.000 Q 8804.962 2268.000 8810.000 2268.000 Q 8805.624 2268.000 8800.000 2268.000 Q 8794.432 2268.000 8790.000 2268.000 Q 8789.785 2268.000 8800.000 2268.000 Q 8805.229 2268.000 8810.000 2268.000 Q 8808.002 2268.000 8800.000 2268.000 Q 8800.789 2268.000 8810.000 2268.000 Q 8806.354 2268.000 8800.000 2268.000 Q 8800.132 2268.000 8800.518 2268.000 L 8800.000 2268.000 L 8801.310 2268.000 L 8800.000 2268.000 "></path>
    <path id="STROKE_66c565bd-4140-4b81-8915-4b717ada81aa" opacity="1.000" fill="none" stroke="#f3ba38" stroke-width="1.325" stroke-opacity="1.000" stroke-linecap="round" stroke-linejoin="round" d="M 9130.000 2368.000 Q 9133.234 2368.000 9140.000 2368.000 Q 9146.349 2368.000 9150.000 2368.000 Q 9157.938 2368.000 9170.000 2368.000 Q 9176.822 2368.000 9200.000 2368.000 Q 9208.002 2368.000 9361.717 2368.000 "></path>
    <path id="STROKE_a34cb9e8-b37f-4357-b5b3-ab3b1037e46c" opacity="1.000" fill="none" stroke="#6ac0c8" stroke-width="1.964" stroke-opacity="1.000" stroke-linecap="round" stroke-linejoin="round" d="M 8801.379 2263.589 Q 8801.329 2263.670 8800.470 2265.146 Q 8800.466 2265.140 8803.869 2259.473 Q 8807.273 2253.806 8811.936 2247.339 Q 8816.598 2240.871 8819.820 2236.899 Q 8823.042 2232.927 8826.161 2229.425 Q 8829.280 2225.922 8830.818 2224.009 Q 8832.356 2222.096 8838.391 2216.312 Q 8844.425 2210.528 8847.795 2207.583 Q 8851.166 2204.638 8854.023 2201.940 Q 8856.882 2199.243 8865.129 2193.237 Q 8873.377 2187.231 8877.747 2184.392 Q 8882.117 2181.553 8884.300 2180.171 Q 8886.482 2178.790 8890.372 2176.567 Q 8894.262 2174.345 8897.501 2172.402 Q 8900.740 2170.458 8910.838 2165.544 Q 8920.936 2160.629 8929.375 2157.128 Q 8937.814 2153.626 8948.515 2150.121 Q 8959.215 2146.616 8964.463 2145.256 Q 8969.711 2143.896 8974.365 2142.596 Q 8979.020 2141.295 8988.227 2139.648 Q 8997.434 2138.000 9002.303 2137.160 Q 9007.173 2136.320 9016.465 2135.391 Q 9025.756 2134.461 9032.305 2133.907 Q 9038.853 2133.352 9050.174 2133.388 Q 9061.495 2133.424 9067.794 2133.649 Q 9074.093 2133.874 9083.698 2134.710 Q 9093.304 2135.547 9100.746 2136.708 Q 9108.188 2137.870 9112.035 2138.481 Q 9115.881 2139.092 9124.055 2140.879 Q 9132.229 2142.667 9136.877 2143.964 Q 9141.523 2145.260 9144.908 2146.140 Q 9148.294 2147.020 9157.383 2149.965 Q 9166.472 2152.910 9174.633 2156.240 Q 9182.794 2159.570 9187.077 2161.526 Q 9191.360 2163.481 9193.990 2164.665 Q 9196.619 2165.848 9202.170 2168.870 Q 9207.722 2171.891 9210.772 2173.525 Q 9213.823 2175.158 9216.521 2176.703 Q 9219.220 2178.248 9226.432 2182.897 Q 9233.643 2187.546 9238.398 2191.053 Q 9243.153 2194.561 9245.465 2196.367 Q 9247.777 2198.172 9250.191 2200.154 Q 9252.605 2202.136 9255.469 2204.507 Q 9258.333 2206.877 9263.045 2211.273 Q 9267.757 2215.670 9271.291 2219.274 Q 9274.825 2222.879 9277.894 2226.253 Q 9280.962 2229.628 9283.541 2232.654 Q 9286.121 2235.679 9288.756 2239.093 Q 9291.391 2242.507 9292.870 2244.432 Q 9294.350 2246.357 9298.588 2252.307 Q 9302.826 2258.256 9306.848 2265.535 Q 9310.869 2272.813 9312.928 2276.881 Q 9314.987 2280.948 9315.912 2282.783 Q 9316.837 2284.619 9319.795 2291.786 Q 9322.754 2298.952 9324.518 2304.255 Q 9326.281 2309.557 9327.689 2314.552 Q 9329.098 2319.547 9330.068 2324.080 Q 9331.039 2328.613 9331.609 2331.437 Q 9332.180 2334.261 9332.791 2338.506 Q 9333.403 2342.750 9333.650 2345.025 Q 9333.897 2347.300 9333.988 2348.211 Q 9334.078 2349.122 9334.104 2349.406 Q 9334.128 2349.690 9334.128 2349.862 Q 9334.128 2350.033 9334.146 2349.656 Q 9334.163 2349.279 9334.410 2352.961 Q 9334.656 2356.644 9334.729 2358.541 Q 9334.802 2360.439 9334.824 2361.123 Q 9334.848 2361.807 9334.857 2362.273 Q 9334.867 2362.740 9334.869 2362.785 Q 9334.871 2362.830 9334.873 2362.940 Q 9334.875 2363.050 9334.881 2363.339 Q 9334.887 2363.628 9334.886 2363.585 Q 9334.885 2363.541 9334.889 2363.773 Q 9334.892 2364.006 9334.892 2364.003 Q 9334.892 2364.001 9334.900 2364.202 Q 9334.910 2364.403 9334.916 2368.312 Q 9334.916 2368.253 9334.918 2367.813 "></path>
    <path id="STROKE_fc22d3e9-7b50-4e37-ad7e-082cb2e49717" opacity="1.000" fill="none" stroke="#f3ba38" stroke-width="2.380" stroke-opacity="1.000" stroke-linecap="round" stroke-linejoin="round" d="M 9355.921 2358.143 Q 9355.044 2358.143 9355.243 2358.143 Q 9355.163 2358.143 9355.065 2358.143 Q 9354.773 2358.339 9355.867 2358.901 Q 9356.961 2359.463 9359.053 2362.684 Q 9361.145 2365.905 9362.400 2368.425 Q 9363.656 2370.946 9364.471 2372.752 Q 9363.676 2373.043 9363.758 2373.005 Q 9362.632 2373.462 9362.876 2373.373 Q 9362.371 2373.654 9362.242 2373.737 Q 9362.114 2373.821 9361.555 2374.237 Q 9360.996 2374.654 9361.200 2374.509 Q 9361.404 2374.364 9359.500 2376.008 Q 9357.595 2377.652 9355.475 2379.295 Q 9356.210 2379.169 9356.572 2378.781 Q 9356.936 2378.394 9357.274 2378.053 "></path>
    <path id="STROKE_12bb47d7-ede7-40d5-8890-f49ca4e8fbc6" opacity="1.000" fill="none" stroke="#f3ba38" stroke-width="2.380" stroke-opacity="1.000" stroke-linecap="round" stroke-linejoin="round" d="M 9375.392 2362.563 Q 9375.404 2361.382 9375.417 2361.748 Q 9375.426 2361.965 9375.475 2361.424 Q 9375.523 2360.883 9377.039 2360.387 Q 9378.554 2359.890 9379.784 2360.089 Q 9381.015 2360.287 9381.797 2360.692 Q 9382.580 2361.097 9383.614 2362.274 Q 9384.648 2363.452 9385.133 2364.883 Q 9385.617 2366.313 9384.927 2368.266 Q 9384.236 2370.219 9382.559 2371.917 Q 9380.880 2373.614 9376.094 2374.728 Q 9375.976 2374.780 9375.977 2374.728 Q 9375.978 2374.676 9376.357 2374.084 Q 9376.738 2373.493 9377.561 2372.966 Q 9378.383 2372.438 9378.775 2372.097 "></path>
    <path id="STROKE_3819a5b9-1c5e-40e7-bc86-89fe5f5ed3b2" opacity="1.000" fill="none" stroke="#f3ba38" stroke-width="2.380" stroke-opacity="1.000" stroke-linecap="round" stroke-linejoin="round" d="M 9391.298 2360.306 Q 9391.253 2360.371 9391.291 2360.366 Q 9391.329 2360.361 9391.062 2360.114 Q 9390.794 2359.866 9390.346 2359.787 Q 9389.896 2359.709 9389.506 2359.813 Q 9389.116 2359.917 9389.090 2360.047 Q 9389.062 2360.178 9388.980 2360.187 Q 9388.898 2360.196 9387.062 2361.911 Q 9385.228 2363.626 9384.015 2365.453 Q 9382.802 2367.280 9382.660 2368.568 Q 9382.518 2369.855 9382.420 2370.626 Q 9382.321 2371.397 9383.586 2372.825 Q 9384.850 2374.254 9388.270 2373.997 Q 9391.690 2373.740 9391.975 2373.566 "></path>
    <path id="STROKE_d93d3081-4785-4855-8c0a-ab99ee841b33" opacity="1.000" fill="none" stroke="#f3ba38" stroke-width="2.123" stroke-opacity="1.000" stroke-linecap="round" stroke-linejoin="round" d="M 8800.000 2178.000 Q 8800.000 2175.018 8800.000 2168.000 Q 8800.000 2161.322 8800.000 2158.000 Q 8800.000 2152.036 8800.000 2148.000 Q 8800.000 2141.296 8800.000 2138.000 Q 8800.000 2132.921 8800.000 2128.000 Q 8800.000 2122.535 8800.000 2118.000 Q 8800.000 2112.896 8800.000 2108.000 Q 8800.000 2111.697 8800.000 2118.000 "></path>
    <path id="STROKE_aac12d03-e625-45d4-ac03-8aa590229e7c" opacity="1.000" fill="none" stroke="#f3ba38" stroke-width="2.293" stroke-opacity="1.000" stroke-linecap="round" stroke-linejoin="round" d="M 8800.000 2108.000 Q 8800.000 2102.727 8800.000 2098.000 Q 8800.000 2092.448 8800.000 2088.000 Q 8800.000 2082.470 8800.000 2078.000 Q 8800.000 2072.994 8800.000 2068.000 L 8800.000 2069.649 L 8800.000 2068.000 Q 8800.000 2070.049 8800.000 2069.989 L 8800.000 2070.112 L 8800.000 2068.000 L 8800.000 2070.397 L 8800.000 2068.000 "></path>
    <path id="STROKE_a3d0014e-3852-4026-9fbe-ee0308b27296" opacity="1.000" fill="none" stroke="#f3ba38" stroke-width="2.238" stroke-opacity="1.000" stroke-linecap="round" stroke-linejoin="round" d="M 8790.565 2075.990 Q 8790.565 2075.990 8790.633 2075.372 Q 8790.699 2074.754 8793.494 2070.821 Q 8796.289 2066.888 8798.793 2061.502 Q 8798.741 2061.142 8799.314 2062.110 Q 8799.888 2063.079 8801.574 2065.921 Q 8803.262 2068.763 8806.529 2072.124 Q 8806.672 2072.037 8806.788 2071.950 "></path>
    <path id="STROKE_8dc9a579-0453-4b07-b1ca-8a70bfaa6700" opacity="1.000" fill="none" stroke="#f3ba38" stroke-width="2.320" stroke-opacity="1.000" stroke-linecap="round" stroke-linejoin="round" d="M 8812.066 2065.151 Q 8811.934 2064.396 8811.894 2064.486 Q 8811.239 2063.300 8811.455 2063.753 Q 8811.372 2063.753 8811.235 2063.753 Q 8811.300 2063.356 8810.939 2066.207 Q 8810.580 2069.058 8811.110 2070.914 Q 8811.641 2072.769 8812.503 2073.384 Q 8813.365 2073.999 8814.298 2074.058 Q 8815.230 2074.116 8816.135 2073.190 Q 8817.038 2072.263 8817.885 2069.297 Q 8818.731 2066.330 8819.034 2062.766 Q 8818.952 2061.873 8818.965 2065.433 Q 8818.978 2068.992 8818.973 2074.490 Q 8818.969 2079.988 8818.757 2083.264 Q 8818.545 2086.540 8818.211 2088.271 Q 8817.876 2090.002 8817.506 2090.722 Q 8817.135 2091.442 8816.355 2091.282 Q 8815.575 2091.122 8815.229 2090.624 Q 8814.884 2090.126 8814.502 2089.421 Q 8814.121 2088.715 8813.527 2087.378 Q 8812.933 2086.042 8812.660 2083.430 Q 8812.387 2080.819 8812.359 2080.586 "></path>
    <path id="STROKE_1d91197b-adbf-4948-8041-7d33a3f0a41f" opacity="1.000" fill="none" stroke="#f3ba38" stroke-width="2.380" stroke-opacity="1.000" stroke-linecap="round" stroke-linejoin="round" d="M 8773.872 2267.824 Q 8773.193 2267.389 8773.378 2267.518 Q 8772.528 2267.174 8772.562 2267.192 Q 8772.596 2267.210 8772.627 2267.223 Q 8772.493 2266.957 8771.273 2266.797 Q 8770.053 2266.636 8768.945 2267.000 Q 8767.837 2267.364 8766.572 2268.806 Q 8765.307 2270.248 8764.375 2272.120 Q 8763.443 2273.992 8763.111 2276.460 Q 8762.780 2278.928 8763.109 2281.321 Q 8763.438 2283.715 8764.420 2286.137 Q 8765.402 2288.560 8766.325 2293.106 Q 8767.248 2297.652 8767.598 2300.115 Q 8767.947 2302.578 8768.056 2304.003 Q 8768.164 2305.429 8768.208 2306.931 Q 8768.252 2308.433 8768.404 2309.319 Q 8768.556 2310.206 8767.816 2311.054 Q 8767.077 2311.903 8766.562 2312.218 Q 8766.046 2312.533 8765.666 2312.740 Q 8765.286 2312.946 8764.545 2313.146 Q 8763.804 2313.345 8762.344 2313.331 Q 8760.884 2313.317 8760.098 2313.316 Q 8759.312 2313.315 8757.939 2313.592 Q 8757.939 2313.624 8757.939 2313.656 Q 8759.011 2313.821 8758.673 2313.784 Q 8759.356 2313.907 8760.812 2314.526 Q 8762.269 2315.144 8762.728 2315.628 Q 8763.187 2316.111 8763.404 2316.585 Q 8763.623 2317.059 8763.740 2317.792 Q 8763.858 2318.525 8763.930 2318.538 Q 8764.001 2318.551 8763.998 2321.194 Q 8763.995 2323.837 8763.236 2328.544 Q 8762.478 2333.252 8762.140 2335.559 Q 8761.802 2337.866 8761.492 2340.417 Q 8761.182 2342.967 8760.758 2347.649 Q 8760.334 2352.330 8760.188 2355.894 Q 8760.041 2359.458 8760.309 2361.179 Q 8760.577 2362.901 8760.789 2363.701 Q 8761.001 2364.501 8761.428 2364.928 Q 8761.854 2365.354 8761.868 2365.324 Q 8761.882 2365.293 8761.949 2365.429 Q 8762.017 2365.564 8763.364 2365.447 Q 8764.712 2365.329 8766.412 2365.104 Q 8768.111 2364.878 8769.005 2364.918 Q 8769.898 2364.958 8770.562 2366.079 Q 8770.601 2366.256 8769.959 2366.084 Q 8769.317 2365.913 8769.096 2365.778 "></path>
    <path id="STROKE_919c743d-fb10-46b7-9bf0-1c6a2f995dff" opacity="1.000" fill="none" stroke="#f3ba38" stroke-width="2.380" stroke-opacity="1.000" stroke-linecap="round" stroke-linejoin="round" d="M 8703.642 2300.241 Q 8703.642 2300.874 8703.642 2298.502 Q 8703.800 2297.688 8713.553 2309.743 Q 8713.553 2309.266 8713.553 2308.891 Q 8713.553 2308.515 8713.553 2308.272 "></path>
    <path id="STROKE_a1d1a6ad-26e2-4aee-bc32-9d2e6f4ff1ac" opacity="1.000" fill="none" stroke="#f3ba38" stroke-width="2.272" stroke-opacity="1.000" stroke-linecap="round" stroke-linejoin="round" d="M 8718.534 2300.126 Q 8718.534 2300.126 8718.223 2300.376 Q 8717.910 2300.625 8716.789 2304.188 Q 8715.668 2307.751 8714.198 2311.420 Q 8712.729 2315.090 8710.688 2322.236 Q 8710.994 2321.660 8711.787 2320.046 Q 8712.581 2318.432 8712.854 2318.055 "></path>
    <path id="STROKE_c2b17b9c-9d9e-4293-9fb0-519c23ee2cf0" opacity="1.000" fill="none" stroke="#f3ba38" stroke-width="2.380" stroke-opacity="1.000" stroke-linecap="round" stroke-linejoin="round" d="M 8719.821 2314.800 Q 8719.823 2314.467 8719.421 2312.194 L 8719.394 2312.194 Q 8718.462 2312.997 8718.984 2321.955 Q 8719.134 2322.133 8720.307 2322.005 Q 8721.480 2321.877 8722.564 2319.649 Q 8723.648 2317.420 8724.045 2315.803 Q 8724.441 2314.186 8724.418 2313.235 Q 8724.394 2312.284 8724.281 2312.027 Q 8724.169 2311.770 8723.293 2311.668 Q 8722.418 2311.566 8721.759 2311.573 Q 8721.100 2311.580 8720.692 2311.928 Q 8720.285 2312.276 8720.112 2312.480 "></path>
    <path id="STROKE_072ca0f0-ccfa-4813-bd82-de4d01fc7051" opacity="1.000" fill="none" stroke="#6ac0c8" stroke-width="2.720" stroke-opacity="1.000" stroke-linecap="round" stroke-linejoin="round" d="M 8800.243 2267.241 Q 8800.243 2267.241 8800.783 2267.233 Q 8801.324 2267.225 8809.592 2267.423 Q 8817.858 2267.622 8823.689 2267.299 Q 8829.521 2266.976 8832.858 2266.933 Q 8836.196 2266.890 8842.211 2266.778 Q 8842.184 2266.778 8842.102 2266.778 Q 8842.102 2266.743 8842.088 2266.627 Q 8842.074 2266.511 8842.047 2266.368 "></path>
    <path id="STROKE_7dc8993b-06f1-4bdc-b18c-a5917b168970" opacity="1.000" fill="none" stroke="#6ac0c8" stroke-width="2.720" stroke-opacity="1.000" stroke-linecap="round" stroke-linejoin="round" d="M 8810.944 2250.024 Q 8810.767 2249.924 8810.648 2249.368 Q 8810.531 2248.812 8810.576 2248.321 Q 8810.622 2247.830 8811.025 2247.562 Q 8811.428 2247.295 8811.443 2247.302 Q 8811.458 2247.309 8811.463 2247.330 Q 8811.469 2247.352 8811.492 2247.303 Q 8811.516 2247.254 8812.686 2247.193 Q 8813.856 2247.132 8815.334 2248.510 Q 8816.811 2249.889 8817.702 2251.303 Q 8818.594 2252.717 8818.984 2253.856 Q 8819.376 2254.996 8819.921 2256.249 Q 8820.466 2257.502 8818.651 2263.176 L 8818.624 2263.176 Q 8818.292 2263.861 8818.388 2263.701 Q 8818.295 2265.033 8818.333 2264.567 Q 8818.348 2265.712 8818.360 2265.325 Q 8818.355 2265.391 8818.543 2265.727 Q 8818.597 2265.727 8818.815 2265.683 Q 8819.034 2265.638 8819.207 2265.550 "></path>
    <path id="STROKE_902b363b-14dc-4ac9-be0c-8e8148fd7a63" opacity="1.000" fill="none" stroke="#6ac0c8" stroke-width="2.720" stroke-opacity="1.000" stroke-linecap="round" stroke-linejoin="round" d="M 8833.129 2245.863 Q 8833.773 2246.026 8829.963 2244.499 Q 8829.938 2243.922 8829.146 2247.145 Q 8828.355 2250.368 8828.678 2252.426 Q 8828.999 2254.483 8829.488 2255.271 Q 8829.979 2256.059 8831.147 2256.493 Q 8832.316 2256.926 8833.740 2256.935 Q 8835.164 2256.943 8836.862 2255.866 Q 8838.561 2254.789 8839.532 2253.161 Q 8840.504 2251.533 8841.213 2249.641 Q 8841.923 2247.748 8841.086 2246.767 Q 8840.250 2245.786 8839.383 2245.555 Q 8838.515 2245.324 8835.611 2244.301 Q 8832.707 2243.278 8829.753 2243.080 Q 8829.712 2243.980 8829.764 2244.021 Q 8829.816 2244.062 8829.908 2244.349 "></path>
    <path id="STROKE_783e2d29-8e83-4eb6-a4ba-b4545d70265b" opacity="1.000" fill="none" stroke="#6ac0c8" stroke-width="2.720" stroke-opacity="1.000" stroke-linecap="round" stroke-linejoin="round" d="M 8823.720 2250.325 Q 8823.619 2250.286 8823.302 2249.710 Q 8824.720 2249.172 8831.116 2249.025 Q 8837.513 2248.879 8845.632 2248.633 Q 8845.632 2248.667 8845.572 2248.756 Q 8845.514 2248.844 8845.396 2248.988 "></path>
    <path id="STROKE_d9d89959-091d-45fe-a7e3-8530a3a70280" opacity="1.000" fill="none" stroke="#f66640" stroke-width="2.380" stroke-opacity="1.000" stroke-linecap="round" stroke-linejoin="round" d="M 9051.772 2087.139 Q 9051.772 2087.139 9051.736 2087.139 Q 9051.699 2087.139 9051.355 2086.998 Q 9051.355 2088.668 9051.355 2088.233 Q 9051.355 2089.648 9051.355 2103.592 Q 9051.355 2103.561 9051.559 2103.295 Q 9051.762 2103.030 9051.897 2102.936 "></path>
    <path id="STROKE_9da93a7b-1c5f-4d3c-b350-45416cfe7062" opacity="1.000" fill="none" stroke="#f66640" stroke-width="2.380" stroke-opacity="1.000" stroke-linecap="round" stroke-linejoin="round" d="M 9042.351 2104.061 Q 9042.438 2104.467 9042.226 2103.186 Q 9042.362 2104.882 9044.324 2108.725 Q 9046.287 2112.569 9047.462 2114.819 Q 9048.637 2117.068 9050.865 2117.951 Q 9051.584 2117.176 9051.429 2117.326 Q 9051.802 2116.976 9052.238 2115.569 Q 9052.674 2114.161 9057.682 2104.780 L 9057.713 2104.780 Q 9057.749 2104.368 9057.652 2105.722 Q 9057.557 2107.076 9057.400 2107.311 "></path>
    <path id="STROKE_c7165036-2cce-4c2e-b34c-537897c27c72" opacity="1.000" fill="none" stroke="#f66640" stroke-width="2.380" stroke-opacity="1.000" stroke-linecap="round" stroke-linejoin="round" d="M 9032.033 2045.670 Q 9032.552 2045.032 9033.159 2043.670 Q 9033.315 2044.207 9033.297 2043.787 Q 9033.279 2043.367 9033.330 2045.406 Q 9033.380 2047.446 9033.316 2049.379 Q 9033.252 2051.312 9033.586 2054.155 Q 9033.648 2054.155 9033.748 2054.205 Q 9033.847 2054.256 9034.014 2054.358 "></path>
    <path id="STROKE_0a12c3de-0b9a-4821-b3fe-ebc5dd198b24" opacity="1.000" fill="none" stroke="#f66640" stroke-width="2.380" stroke-opacity="1.000" stroke-linecap="round" stroke-linejoin="round" d="M 9023.759 2064.186 Q 9023.759 2064.186 9023.759 2064.166 Q 9023.759 2064.147 9023.759 2063.686 Q 9024.746 2063.068 9028.984 2062.832 Q 9033.224 2062.595 9035.912 2062.331 Q 9038.600 2062.067 9039.521 2062.755 Q 9040.443 2063.444 9040.579 2063.576 "></path>
    <path id="STROKE_b59a11e8-6bc1-4a5f-bf06-91ed76f621a6" opacity="1.000" fill="none" stroke="#f66640" stroke-width="2.380" stroke-opacity="1.000" stroke-linecap="round" stroke-linejoin="round" d="M 9028.720 2070.092 Q 9028.744 2070.293 9028.670 2069.574 Q 9028.597 2068.854 9028.942 2068.476 Q 9029.288 2068.098 9029.640 2068.024 Q 9029.991 2067.950 9030.184 2067.927 Q 9030.375 2067.903 9030.566 2067.922 Q 9030.758 2067.941 9030.990 2067.791 Q 9031.223 2067.639 9032.252 2068.192 Q 9033.281 2068.744 9034.322 2070.056 Q 9035.363 2071.368 9035.867 2073.521 Q 9036.372 2075.673 9036.393 2077.374 Q 9036.413 2079.075 9035.854 2080.231 Q 9035.293 2081.388 9034.516 2081.970 Q 9033.737 2082.552 9032.674 2082.736 Q 9031.609 2082.921 9030.447 2082.410 Q 9029.286 2081.899 9028.374 2080.124 Q 9027.462 2078.350 9027.438 2077.455 Q 9027.412 2076.561 9027.557 2075.993 Q 9027.700 2075.425 9028.193 2074.978 Q 9028.688 2074.531 9032.189 2074.926 Q 9035.691 2075.321 9038.069 2075.613 Q 9040.447 2075.905 9041.686 2075.745 Q 9042.924 2075.584 9043.164 2075.451 "></path>
    <path id="STROKE_3b0d8b34-14fd-478d-a1bb-1aa2c892826c" opacity="1.000" fill="none" stroke="#f66640" stroke-width="2.380" stroke-opacity="1.000" stroke-linecap="round" stroke-linejoin="round" d="M 9048.458 2070.483 Q 9048.458 2070.514 9048.458 2070.951 Q 9049.490 2072.216 9057.066 2052.233 L 9057.098 2052.233 Q 9056.427 2052.771 9058.713 2073.873 Q 9058.316 2073.798 9057.529 2073.417 Q 9056.742 2073.036 9056.684 2073.070 Q 9056.625 2073.105 9056.946 2073.042 Q 9057.268 2072.978 9047.521 2072.405 Q 9047.521 2072.373 9047.521 2072.342 Q 9047.756 2072.342 9048.170 2072.276 Q 9048.583 2072.209 9048.917 2072.076 "></path>
    <path id="STROKE_38b8795e-0bfa-465f-b50d-f858fc1061d3" opacity="1.000" fill="none" stroke="#f66640" stroke-width="2.278" stroke-opacity="1.000" stroke-linecap="round" stroke-linejoin="round" d="M 9069.239 2055.686 Q 9068.475 2054.726 9068.687 2054.928 Q 9068.655 2054.795 9068.614 2054.686 Q 9068.572 2054.686 9068.541 2054.686 Q 9068.409 2055.061 9066.631 2060.341 Q 9064.852 2065.621 9064.278 2071.881 Q 9065.212 2072.611 9067.709 2070.913 Q 9070.206 2069.214 9072.072 2068.969 Q 9073.939 2068.725 9074.075 2068.826 "></path>
    <path id="STROKE_0437800c-dc93-43db-be3d-527c2745fd64" opacity="1.000" fill="none" stroke="#f66640" stroke-width="2.380" stroke-opacity="1.000" stroke-linecap="round" stroke-linejoin="round" d="M 9059.964 2064.780 Q 9059.964 2064.780 9060.876 2064.769 Q 9061.788 2064.757 9061.329 2064.748 Q 9062.603 2064.364 9065.939 2063.602 Q 9069.277 2062.839 9072.932 2063.294 Q 9076.587 2063.748 9076.847 2063.780 "></path>
  </g>
</svg>